<svg xmlns="http://www.w3.org/2000/svg" width="44" height="40" viewBox="0 0 44 40" fill="none">
  <path d="M13.9848 5.1232L3.78924 13.5535C2.55279 14.5759 1.99074 16.2012 2.32995 17.7734L6.20049 35.7132C6.70444 38.049 9.00894 39.5455 11.3477 39.0557L34.3378 34.2414C36.6766 33.7516 38.1641 31.4611 37.6601 29.1253L33.7896 11.1855C33.4504 9.61331 32.2659 8.35371 30.7142 7.91519L17.9197 4.2992C16.5484 3.91166 15.0775 4.21967 13.9848 5.1232Z" fill="#FFC3DC" fill-opacity="0.8"/>
  <path d="M26.0871 4.32179L13.3048 7.92327C11.7546 8.36004 10.5725 9.61885 10.2356 11.1916L6.39112 29.1368C5.89056 31.4733 7.38018 33.7672 9.71828 34.2602L32.7013 39.1072C35.0394 39.6003 37.3406 38.1059 37.8412 35.7694L41.6856 17.8242C42.0225 16.2515 41.4587 14.6244 40.2216 13.5999L30.0208 5.15138C28.9275 4.2459 27.457 3.93579 26.0871 4.32179Z" fill="#FE006B" fill-opacity="0.56"/>
  <path d="M19.9526 1.05265L8.19999 7.21226C6.77479 7.95921 5.88184 9.43538 5.88184 11.0445V29.3822C5.88184 31.7718 7.81893 33.7089 10.2085 33.7089H33.7137C36.1033 33.7089 38.0404 31.7718 38.0404 29.3822V11.0445C38.0404 9.43537 37.1474 7.95921 35.7222 7.21226L23.9696 1.05265C22.7117 0.39341 21.2105 0.39341 19.9526 1.05265Z" fill="#BB004F" fill-opacity="0.72"/>
  <path d="M18.8805 12.9515C19.8819 12.9515 20.7293 12.1525 20.7293 11.1252C20.7293 10.136 19.8819 9.299 18.8805 9.299C17.8405 9.299 17.0317 10.136 17.0317 11.1252C17.0317 12.1525 17.8405 12.9515 18.8805 12.9515ZM17.0317 15.3865C17.0317 14.3973 16.1843 13.5602 15.1828 13.5602C14.1428 13.5602 13.334 14.3973 13.334 15.3865C13.334 16.4137 14.1428 17.2127 15.1828 17.2127C16.1843 17.2127 17.0317 16.4137 17.0317 15.3865ZM25.0433 12.9515C26.0447 12.9515 26.8921 12.1525 26.8921 11.1252C26.8921 10.136 26.0447 9.299 25.0433 9.299C24.0033 9.299 23.1944 10.136 23.1944 11.1252C23.1944 12.1525 24.0033 12.9515 25.0433 12.9515ZM28.7409 13.5602C27.701 13.5602 26.8921 14.3973 26.8921 15.3865C26.8921 16.4137 27.701 17.2127 28.7409 17.2127C29.7424 17.2127 30.5898 16.4137 30.5898 15.3865C30.5898 14.3973 29.7424 13.5602 28.7409 13.5602ZM27.4699 19.5336C26.4684 18.9629 25.6596 17.2127 24.8892 15.805C24.2729 14.7397 23.1174 14.169 21.9619 14.169C20.7678 14.169 19.6123 14.7397 18.996 15.805C18.2257 17.2127 17.4553 18.9629 16.4154 19.5336C15.2984 20.1804 14.5665 21.3598 14.5665 22.6914C14.5665 24.7079 16.1843 26.3439 18.2642 26.3439C20.2286 26.42 21.0375 25.1264 21.9619 25.1264C22.8478 25.1264 23.6566 26.42 25.6596 26.3439C27.701 26.3439 29.3572 24.7079 29.3572 22.6914C29.3572 21.3598 28.5869 20.1804 27.4699 19.5336Z" fill="white"/>
</svg>